<svg width="176" height="36" viewBox="0 0 176 36" fill="none" xmlns="http://www.w3.org/2000/svg">
<path opacity="0.4" d="M11 9H3V17H11V9Z" fill="#111827"/>
<path opacity="0.7" d="M16 14H8V22H16V14Z" fill="#111827"/>
<path d="M21 19H13V27H21V19Z" fill="#111827"/>
<path d="M34.397 29V7.18182H48.076V10.0156H37.6889V16.6634H47.3622V19.4865H37.6889V26.1662H48.2038V29H34.397ZM54.1757 7.18182L60.2481 24.9517H60.4931L66.5656 7.18182H70.1238L62.2722 29H58.469L50.6174 7.18182H54.1757ZM90.9385 18.0909C90.9385 20.4205 90.5124 22.4233 89.6601 24.0994C88.8078 25.7685 87.6395 27.054 86.1551 27.956C84.6778 28.8509 82.9982 29.2983 81.1161 29.2983C79.2268 29.2983 77.5401 28.8509 76.0557 27.956C74.5784 27.054 73.4136 25.7649 72.5614 24.0888C71.7091 22.4126 71.283 20.4134 71.283 18.0909C71.283 15.7614 71.7091 13.7621 72.5614 12.093C73.4136 10.4169 74.5784 9.13139 76.0557 8.23651C77.5401 7.33452 79.2268 6.88352 81.1161 6.88352C82.9982 6.88352 84.6778 7.33452 86.1551 8.23651C87.6395 9.13139 88.8078 10.4169 89.6601 12.093C90.5124 13.7621 90.9385 15.7614 90.9385 18.0909ZM87.6786 18.0909C87.6786 16.3153 87.3909 14.8203 86.8156 13.6058C86.2474 12.3842 85.4662 11.4609 84.4719 10.8359C83.4847 10.2038 82.3661 9.88778 81.1161 9.88778C79.8589 9.88778 78.7368 10.2038 77.7496 10.8359C76.7624 11.4609 75.9811 12.3842 75.4058 13.6058C74.8376 14.8203 74.5536 16.3153 74.5536 18.0909C74.5536 19.8665 74.8376 21.3651 75.4058 22.5866C75.9811 23.8011 76.7624 24.7244 77.7496 25.3565C78.7368 25.9815 79.8589 26.294 81.1161 26.294C82.3661 26.294 83.4847 25.9815 84.4719 25.3565C85.4662 24.7244 86.2474 23.8011 86.8156 22.5866C87.3909 21.3651 87.6786 19.8665 87.6786 18.0909ZM94.8382 29V7.18182H98.1301V26.1662H108.016V29H94.8382ZM125.483 14.0746C125.277 13.4283 125 12.8494 124.652 12.3381C124.311 11.8196 123.903 11.3793 123.427 11.017C122.951 10.6477 122.408 10.3672 121.797 10.1754C121.194 9.98366 120.53 9.88778 119.805 9.88778C118.576 9.88778 117.468 10.2038 116.481 10.8359C115.494 11.468 114.713 12.3949 114.137 13.6165C113.569 14.831 113.285 16.3189 113.285 18.0803C113.285 19.8487 113.573 21.3437 114.148 22.5653C114.723 23.7869 115.512 24.7138 116.513 25.3459C117.515 25.978 118.655 26.294 119.933 26.294C121.119 26.294 122.152 26.0526 123.033 25.5696C123.921 25.0866 124.606 24.4048 125.089 23.5241C125.579 22.6364 125.824 21.5923 125.824 20.392L126.677 20.5518H120.434V17.8352H129.01V20.3175C129.01 22.1499 128.619 23.7408 127.838 25.0902C127.064 26.4325 125.991 27.4695 124.62 28.201C123.257 28.9325 121.694 29.2983 119.933 29.2983C117.958 29.2983 116.226 28.8438 114.734 27.9347C113.25 27.0256 112.092 25.7365 111.261 24.0675C110.43 22.3913 110.015 20.4027 110.015 18.1016C110.015 16.3615 110.256 14.799 110.739 13.4141C111.222 12.0291 111.9 10.8537 112.774 9.88778C113.655 8.91477 114.688 8.17259 115.874 7.66122C117.067 7.14276 118.37 6.88352 119.784 6.88352C120.963 6.88352 122.06 7.05753 123.076 7.40554C124.098 7.75355 125.007 8.24716 125.803 8.88636C126.606 9.52557 127.27 10.2855 127.795 11.1662C128.321 12.0398 128.676 13.0092 128.86 14.0746H125.483ZM132.984 29V7.18182H140.761C142.451 7.18182 143.854 7.47301 144.969 8.0554C146.091 8.63778 146.929 9.44389 147.483 10.4737C148.037 11.4964 148.314 12.679 148.314 14.0213C148.314 15.3565 148.034 16.532 147.473 17.5476C146.919 18.5561 146.081 19.3409 144.958 19.902C143.843 20.4631 142.441 20.7436 140.75 20.7436H134.859V17.9098H140.452C141.517 17.9098 142.384 17.7571 143.051 17.4517C143.726 17.1463 144.22 16.7024 144.532 16.12C144.845 15.5376 145.001 14.8381 145.001 14.0213C145.001 13.1974 144.841 12.4837 144.522 11.88C144.209 11.2763 143.715 10.8146 143.041 10.495C142.373 10.1683 141.496 10.005 140.409 10.005H136.276V29H132.984ZM143.755 19.1562L149.145 29H145.395L140.111 19.1562H143.755ZM155.407 7.18182V29H152.115V7.18182H155.407ZM158.921 10.0156V7.18182H175.806V10.0156H168.999V29H165.718V10.0156H158.921Z" fill="#111827"/>
</svg>
