<svg width="144" height="36" viewBox="0 0 144 36" fill="none" xmlns="http://www.w3.org/2000/svg">
<rect width="144" height="36" fill="#F5F5F5"/>
<path d="M2.39702 29V7.18182H16.076V10.0156H5.68892V16.6634H15.3622V19.4865H5.68892V26.1662H16.2038V29H2.39702ZM22.1757 7.18182L28.2481 24.9517H28.4931L34.5656 7.18182H38.1238L30.2722 29H26.469L18.6174 7.18182H22.1757ZM58.9385 18.0909C58.9385 20.4205 58.5124 22.4233 57.6601 24.0994C56.8078 25.7685 55.6395 27.054 54.1551 27.956C52.6778 28.8509 50.9982 29.2983 49.1161 29.2983C47.2268 29.2983 45.5401 28.8509 44.0557 27.956C42.5784 27.054 41.4136 25.7649 40.5614 24.0888C39.7091 22.4126 39.283 20.4134 39.283 18.0909C39.283 15.7614 39.7091 13.7621 40.5614 12.093C41.4136 10.4169 42.5784 9.13139 44.0557 8.23651C45.5401 7.33452 47.2268 6.88352 49.1161 6.88352C50.9982 6.88352 52.6778 7.33452 54.1551 8.23651C55.6395 9.13139 56.8078 10.4169 57.6601 12.093C58.5124 13.7621 58.9385 15.7614 58.9385 18.0909ZM55.6786 18.0909C55.6786 16.3153 55.3909 14.8203 54.8156 13.6058C54.2474 12.3842 53.4662 11.4609 52.4719 10.8359C51.4847 10.2038 50.3661 9.88778 49.1161 9.88778C47.8589 9.88778 46.7368 10.2038 45.7496 10.8359C44.7624 11.4609 43.9811 12.3842 43.4058 13.6058C42.8376 14.8203 42.5536 16.3153 42.5536 18.0909C42.5536 19.8665 42.8376 21.3651 43.4058 22.5866C43.9811 23.8011 44.7624 24.7244 45.7496 25.3565C46.7368 25.9815 47.8589 26.294 49.1161 26.294C50.3661 26.294 51.4847 25.9815 52.4719 25.3565C53.4662 24.7244 54.2474 23.8011 54.8156 22.5866C55.3909 21.3651 55.6786 19.8665 55.6786 18.0909ZM62.8382 29V7.18182H66.1301V26.1662H76.0165V29H62.8382ZM93.4833 14.0746C93.2774 13.4283 93.0004 12.8494 92.6524 12.3381C92.3115 11.8196 91.9031 11.3793 91.4272 11.017C90.9514 10.6477 90.4081 10.3672 89.7973 10.1754C89.1936 9.98366 88.5295 9.88778 87.8051 9.88778C86.5764 9.88778 85.4684 10.2038 84.4812 10.8359C83.494 11.468 82.7127 12.3949 82.1375 13.6165C81.5693 14.831 81.2852 16.3189 81.2852 18.0803C81.2852 19.8487 81.5728 21.3437 82.1481 22.5653C82.7234 23.7869 83.5118 24.7138 84.5132 25.3459C85.5146 25.978 86.6545 26.294 87.9329 26.294C89.119 26.294 90.1524 26.0526 91.0331 25.5696C91.9208 25.0866 92.6062 24.4048 93.0892 23.5241C93.5792 22.6364 93.8243 21.5923 93.8243 20.392L94.6765 20.5518H88.4336V17.8352H97.0096V20.3175C97.0096 22.1499 96.619 23.7408 95.8377 25.0902C95.0636 26.4325 93.9912 27.4695 92.6204 28.201C91.2568 28.9325 89.6943 29.2983 87.9329 29.2983C85.9585 29.2983 84.2255 28.8438 82.7341 27.9347C81.2497 27.0256 80.092 25.7365 79.261 24.0675C78.4301 22.3913 78.0146 20.4027 78.0146 18.1016C78.0146 16.3615 78.2561 14.799 78.739 13.4141C79.222 12.0291 79.9002 10.8537 80.7738 9.88778C81.6545 8.91477 82.6879 8.17259 83.874 7.66122C85.0672 7.14276 86.3704 6.88352 87.7838 6.88352C88.9627 6.88352 90.06 7.05753 91.0757 7.40554C92.0984 7.75355 93.0075 8.24716 93.8029 8.88636C94.6055 9.52557 95.2696 10.2855 95.7951 11.1662C96.3207 12.0398 96.6758 13.0092 96.8605 14.0746H93.4833ZM100.984 29V7.18182H108.761C110.451 7.18182 111.854 7.47301 112.969 8.0554C114.091 8.63778 114.929 9.44389 115.483 10.4737C116.037 11.4964 116.314 12.679 116.314 14.0213C116.314 15.3565 116.034 16.532 115.473 17.5476C114.919 18.5561 114.081 19.3409 112.958 19.902C111.843 20.4631 110.441 20.7436 108.75 20.7436H102.859V17.9098H108.452C109.517 17.9098 110.384 17.7571 111.051 17.4517C111.726 17.1463 112.22 16.7024 112.532 16.12C112.845 15.5376 113.001 14.8381 113.001 14.0213C113.001 13.1974 112.841 12.4837 112.522 11.88C112.209 11.2763 111.715 10.8146 111.041 10.495C110.373 10.1683 109.496 10.005 108.409 10.005H104.276V29H100.984ZM111.755 19.1562L117.145 29H113.395L108.111 19.1562H111.755ZM123.407 7.18182V29H120.115V7.18182H123.407ZM126.921 10.0156V7.18182H143.806V10.0156H136.999V29H133.718V10.0156H126.921Z" fill="#111827"/>
</svg>
